<?xml version="1.0" encoding="UTF-8"?>
<svg width="16px" height="16px" viewBox="0 0 16 16" version="1.1" xmlns="http://www.w3.org/2000/svg" xmlns:xlink="http://www.w3.org/1999/xlink">
    <!-- Generator: Sketch 46.2 (44496) - http://www.bohemiancoding.com/sketch -->
    <title>Page 1</title>
    <desc>Created with Sketch.</desc>
    <defs></defs>
    <g id="Page-1" stroke="none" stroke-width="1" fill="none" fill-rule="evenodd">
        <g id="Website-icons" transform="translate(-30.000000, -126.000000)" fill="#969696">
            <path d="M46,129 L46,139 C46,139.826 45.7066667,140.533333 45.12,141.12 C44.5333333,141.706667 43.826,142 43,142 L33,142 C32.1733333,142 31.4673333,141.706667 30.88,141.12 C30.2933333,140.533333 30,139.826 30,139 L30,129 C30,128.173333 30.2933333,127.467333 30.88,126.88 C31.4673333,126.293333 32.1733333,126 33,126 L43,126 C43.826,126 44.5333333,126.293333 45.12,126.88 C45.7066667,127.467333 46,128.173333 46,129 L46,129 Z M38.604,133.186 L38.604,132.166667 L36.198,132.166667 C36.2186667,132.624667 36.2186667,135.034667 36.198,139.396 L38.604,139.396 L38.604,135.354 C38.604,135.090667 38.6286667,134.896 38.6773333,134.770667 C38.7813333,134.528 38.9373333,134.321333 39.146,134.151333 C39.354,133.980667 39.6113333,133.896 39.9166667,133.896 C40.722,133.896 41.1253333,134.441333 41.1253333,135.531333 L41.1253333,139.396 L43.5313333,139.396 L43.5313333,135.25 C43.5313333,134.180667 43.278,133.371333 42.7706667,132.822667 C42.264,132.274667 41.594,132 40.7606667,132 C39.8286667,132 39.11,132.395333 38.604,133.186 L38.604,133.186 Z M38.604,133.186 L38.604,133.218667 L38.5833333,133.218667 C38.59,133.208 38.5973333,133.196667 38.604,133.186 L38.604,133.186 Z M35.0313333,129.937333 C35.0246667,129.576667 34.8993333,129.278 34.656,129.041333 C34.4133333,128.805333 34.09,128.687333 33.6873333,128.687333 C33.2846667,128.687333 32.9566667,128.805333 32.7033333,129.041333 C32.4493333,129.278 32.3226667,129.576667 32.3226667,129.937333 C32.3226667,130.291333 32.446,130.588667 32.6926667,130.828 C32.9393333,131.068 33.2606667,131.187333 33.656,131.187333 L33.6666667,131.187333 C34.0766667,131.187333 34.406,131.068 34.656,130.828 C34.906,130.588667 35.0313333,130.291333 35.0313333,129.937333 L35.0313333,129.937333 Z M32.4686667,139.396 L34.8746667,139.396 L34.8746667,132.166667 L32.4686667,132.166667 L32.4686667,139.396 Z" id="Page-1"></path>
        </g>
    </g>
</svg>